<svg width="131" height="52" viewBox="0 0 131 52" fill="none" xmlns="http://www.w3.org/2000/svg">
<g filter="url(#filter0_d_2217_63)">
<path d="M8.541 6.4H23.376V9.496H9.831L7.767 11.646V18.87H17.743V22.009H7.767V36.5H4.327V10.7L8.541 6.4ZM29.6372 4.336H36.0872L39.5702 6.4V30.953L41.2042 33.404H48.6862L48.6432 36.5H39.5702L36.0872 31.383V7.432H29.6372V4.336ZM57.1834 12.85H63.2464L66.6864 18.01V33.404H74.4694V36.5H55.4634V33.404H63.2464V18.44L61.6124 15.989H57.1834V12.85ZM62.8164 7.217H67.1164V2.917H62.8164V7.217ZM88.1266 13.667H96.8556L100.253 18.827V32.931L96.8126 36.5H88.1696L84.6866 34.436V45.788H81.2466V13.667H84.6866V15.774L88.1266 13.667ZM84.6866 30.91L86.4066 33.404H95.4796L96.7696 32.071V19.257L95.1356 16.806H86.0196L84.6866 18.139V30.91ZM107.46 6.4H120.704L126.509 15.043V32.931L123.069 36.5H107.46V6.4ZM110.9 9.496V33.404H121.65L123.026 31.985V15.473L119.027 9.496H110.9Z" fill="#2D8546"/>
</g>
<defs>
<filter id="filter0_d_2217_63" x="0.326904" y="0.917" width="130.182" height="50.871" filterUnits="userSpaceOnUse" color-interpolation-filters="sRGB">
<feFlood flood-opacity="0" result="BackgroundImageFix"/>
<feColorMatrix in="SourceAlpha" type="matrix" values="0 0 0 0 0 0 0 0 0 0 0 0 0 0 0 0 0 0 127 0" result="hardAlpha"/>
<feOffset dy="2"/>
<feGaussianBlur stdDeviation="2"/>
<feComposite in2="hardAlpha" operator="out"/>
<feColorMatrix type="matrix" values="0 0 0 0 0 0 0 0 0 0 0 0 0 0 0 0 0 0 0.25 0"/>
<feBlend mode="normal" in2="BackgroundImageFix" result="effect1_dropShadow_2217_63"/>
<feBlend mode="normal" in="SourceGraphic" in2="effect1_dropShadow_2217_63" result="shape"/>
</filter>
</defs>
</svg>
