<svg width="45" height="44" viewBox="0 0 45 44" fill="none" xmlns="http://www.w3.org/2000/svg">
<path opacity="0.5" d="M4.16675 22C4.16675 15.0865 4.16675 11.6288 6.31541 9.48198C8.46408 7.33515 11.9199 7.33331 18.8334 7.33331H26.1667C33.0802 7.33331 36.5379 7.33331 38.6847 9.48198C40.8316 11.6306 40.8334 15.0865 40.8334 22C40.8334 28.9135 40.8334 32.3711 38.6847 34.518C36.5361 36.6648 33.0802 36.6666 26.1667 36.6666H18.8334C11.9199 36.6666 8.46225 36.6666 6.31541 34.518C4.16858 32.3693 4.16675 28.9135 4.16675 22Z" fill="#46A862"/>
<path d="M23.8751 18.3333C23.8751 17.9686 23.7302 17.6189 23.4724 17.361C23.2145 17.1032 22.8648 16.9583 22.5001 16.9583C22.1354 16.9583 21.7857 17.1032 21.5278 17.361C21.27 17.6189 21.1251 17.9686 21.1251 18.3333V19.6185L20.0123 18.9768C19.8558 18.879 19.6811 18.8137 19.4988 18.7848C19.3165 18.7559 19.1303 18.764 18.9512 18.8086C18.7721 18.8532 18.6038 18.9334 18.4564 19.0445C18.3089 19.1555 18.1854 19.2951 18.093 19.4549C18.0007 19.6147 17.9415 19.7915 17.9189 19.9747C17.8963 20.1579 17.9109 20.3437 17.9616 20.5212C18.0124 20.6986 18.0984 20.864 18.2145 21.0076C18.3306 21.1511 18.4744 21.2697 18.6373 21.3565L19.7501 21.9981L18.6373 22.6416C18.3212 22.824 18.0906 23.1244 17.996 23.4768C17.9015 23.8292 17.9508 24.2048 18.1331 24.5208C18.3154 24.8369 18.6159 25.0675 18.9683 25.1621C19.3207 25.2566 19.6962 25.2073 20.0123 25.025L21.1251 24.3815V25.6666C21.1251 26.0313 21.27 26.3811 21.5278 26.6389C21.7857 26.8968 22.1354 27.0416 22.5001 27.0416C22.8648 27.0416 23.2145 26.8968 23.4724 26.6389C23.7302 26.3811 23.8751 26.0313 23.8751 25.6666V24.3833L24.9879 25.025C25.304 25.2073 25.6795 25.2566 26.0319 25.1621C26.3844 25.0675 26.6848 24.8369 26.8671 24.5208C27.0494 24.2048 27.0988 23.8292 27.0042 23.4768C26.9097 23.1244 26.679 22.824 26.3629 22.6416L25.2501 22L26.3629 21.3583C26.679 21.176 26.9097 20.8756 27.0042 20.5231C27.0988 20.1707 27.0494 19.7952 26.8671 19.4791C26.6848 19.1631 26.3844 18.9324 26.0319 18.8379C25.6795 18.7433 25.304 18.7926 24.9879 18.975L23.8751 19.6166V18.3333ZM12.8439 16.9583C13.2086 16.9583 13.5584 17.1032 13.8162 17.361C14.0741 17.6189 14.2189 17.9686 14.2189 18.3333V19.6166L15.3299 18.975C15.646 18.7926 16.0215 18.7433 16.3739 18.8379C16.7264 18.9324 17.0268 19.1631 17.2091 19.4791C17.3914 19.7952 17.4408 20.1707 17.3462 20.5231C17.2517 20.8756 17.021 21.176 16.7049 21.3583L15.5921 22L16.7049 22.6416C16.8614 22.7319 16.9986 22.8522 17.1086 22.9955C17.2187 23.1388 17.2994 23.3023 17.3462 23.4768C17.393 23.6513 17.405 23.8333 17.3815 24.0124C17.358 24.1916 17.2994 24.3643 17.2091 24.5208C17.1188 24.6773 16.9986 24.8145 16.8553 24.9245C16.712 25.0345 16.5484 25.1153 16.3739 25.1621C16.1994 25.2089 16.0174 25.2209 15.8383 25.1974C15.6592 25.1738 15.4864 25.1153 15.3299 25.025L14.2189 24.3833V25.6666C14.2189 26.0313 14.0741 26.3811 13.8162 26.6389C13.5584 26.8968 13.2086 27.0416 12.8439 27.0416C12.4793 27.0416 12.1295 26.8968 11.8717 26.6389C11.6138 26.3811 11.4689 26.0313 11.4689 25.6666V24.3815L10.3543 25.0231C10.0397 25.1907 9.67231 25.2295 9.32963 25.1314C8.98696 25.0333 8.69577 24.806 8.51744 24.4974C8.33912 24.1888 8.28761 23.823 8.37377 23.4771C8.45992 23.1313 8.67702 22.8324 8.97928 22.6435L10.0921 22L8.97928 21.3583C8.82279 21.268 8.68561 21.1478 8.57558 21.0045C8.46555 20.8612 8.38482 20.6976 8.33801 20.5231C8.29119 20.3486 8.2792 20.1666 8.30273 19.9875C8.32625 19.8084 8.38483 19.6356 8.47511 19.4791C8.5654 19.3227 8.68562 19.1855 8.82892 19.0754C8.97222 18.9654 9.13578 18.8847 9.31028 18.8379C9.48478 18.7911 9.66679 18.7791 9.84592 18.8026C10.025 18.8261 10.1978 18.8847 10.3543 18.975L11.4689 19.6185V18.3333C11.4689 17.9686 11.6138 17.6189 11.8717 17.361C12.1295 17.1032 12.4793 16.9583 12.8439 16.9583ZM33.5331 18.3333C33.5331 17.9686 33.3882 17.6189 33.1304 17.361C32.8725 17.1032 32.5228 16.9583 32.1581 16.9583C31.7934 16.9583 31.4437 17.1032 31.1858 17.361C30.928 17.6189 30.7831 17.9686 30.7831 18.3333V19.6185L29.6703 18.9768C29.5138 18.879 29.3391 18.8137 29.1568 18.7848C28.9745 18.7559 28.7883 18.764 28.6092 18.8086C28.4301 18.8532 28.2618 18.9334 28.1144 19.0445C27.9669 19.1555 27.8434 19.2951 27.751 19.4549C27.6587 19.6147 27.5995 19.7915 27.5769 19.9747C27.5543 20.1579 27.5689 20.3437 27.6196 20.5212C27.6704 20.6986 27.7564 20.864 27.8725 21.0076C27.9886 21.1511 28.1324 21.2697 28.2953 21.3565L29.4081 21.9981L28.2953 22.6416C28.1388 22.7319 28.0016 22.8522 27.8916 22.9955C27.7816 23.1388 27.7008 23.3023 27.654 23.4768C27.6072 23.6513 27.5952 23.8333 27.6187 24.0124C27.6423 24.1916 27.7008 24.3643 27.7911 24.5208C27.8814 24.6773 28.0016 24.8145 28.1449 24.9245C28.2882 25.0345 28.4518 25.1153 28.6263 25.1621C28.8008 25.2089 28.9828 25.2209 29.1619 25.1974C29.341 25.1738 29.5138 25.1153 29.6703 25.025L30.7831 24.3815V25.6666C30.7831 26.0313 30.928 26.3811 31.1858 26.6389C31.4437 26.8968 31.7934 27.0416 32.1581 27.0416C32.5228 27.0416 32.8725 26.8968 33.1304 26.6389C33.3882 26.3811 33.5331 26.0313 33.5331 25.6666V24.3833L34.6459 25.025C34.962 25.2073 35.3375 25.2566 35.6899 25.1621C36.0424 25.0675 36.3428 24.8369 36.5251 24.5208C36.7074 24.2048 36.7568 23.8292 36.6622 23.4768C36.5677 23.1244 36.337 22.824 36.0209 22.6416L34.9081 22L36.0209 21.3583C36.1774 21.268 36.3146 21.1478 36.4246 21.0045C36.5347 20.8612 36.6154 20.6976 36.6622 20.5231C36.709 20.3486 36.721 20.1666 36.6975 19.9875C36.674 19.8084 36.6154 19.6356 36.5251 19.4791C36.4348 19.3227 36.3146 19.1855 36.1713 19.0754C36.028 18.9654 35.8644 18.8847 35.6899 18.8379C35.5154 18.7911 35.3334 18.7791 35.1543 18.8026C34.9752 18.8261 34.8024 18.8847 34.6459 18.975L33.5331 19.6166V18.3333Z" fill="#46A862"/>
</svg>
